<svg id="pg1" xmlns="http://www.w3.org/2000/svg" viewBox="192 308 260 150" shape-rendering="geometricPrecision" text-rendering="geometricPrecision" width="260" height="150"><style>@keyframes pg61_tr__tr{0%{transform:translate(544.8px,400.1px) rotate(0deg);animation-timing-function:cubic-bezier(.42,0,.58,1)}46.6%{transform:translate(544.8px,400.1px) rotate(-13.2deg);animation-timing-function:cubic-bezier(.42,0,.58,1)}90%,to{transform:translate(544.8px,400.1px) rotate(0deg)}}@keyframes pg63_ts__ts{0%{transform:translate(508.4px,434.4px) scale(1,1)}46.6%{transform:translate(508.4px,434.4px) scale(1,1.13678);animation-timing-function:cubic-bezier(.42,0,.58,1)}90%,to{transform:translate(508.4px,434.4px) scale(1,1.018237)}}@keyframes pg66_tr__tr{0%{transform:translate(390.1px,349.8px) rotate(0deg);animation-timing-function:cubic-bezier(.42,0,.58,1)}46.6%{transform:translate(390.1px,349.8px) rotate(6.0deg);animation-timing-function:cubic-bezier(.42,0,.58,1)}90%,to{transform:translate(390.1px,349.8px) rotate(0deg)}}@keyframes pg77_tr__tr{0%{transform:translate(450.2px,349.8px) rotate(0deg);animation-timing-function:cubic-bezier(.42,0,.58,1)}46.6%{transform:translate(450.2px,349.8px) rotate(-2.5deg);animation-timing-function:cubic-bezier(.42,0,.58,1)}90%,to{transform:translate(450.2px,349.8px) rotate(0deg)}}@keyframes pg90_ts__ts{0%{transform:translate(390.1px,414.4px) scale(1,1);animation-timing-function:cubic-bezier(.42,0,.58,1)}46.6%{transform:translate(390.1px,414.4px) scale(1.056752,1.042161);animation-timing-function:cubic-bezier(.42,0,.58,1)}90%,to{transform:translate(390.1px,414.4px) scale(1,1)}}@keyframes pg136_to__to{0%{transform:translate(439.2px,434.4px);animation-timing-function:cubic-bezier(.42,0,.58,1)}46.6%{transform:translate(445.6px,429.5px);animation-timing-function:cubic-bezier(.42,0,.58,1)}90%,to{transform:translate(439.2px,434.4px)}}@keyframes pg136_ts__ts{0%{transform:scale(1,1);animation-timing-function:cubic-bezier(.42,0,.58,1)}46.6%{transform:scale(1.403555,1.080329);animation-timing-function:cubic-bezier(.42,0,.58,1)}90%,to{transform:scale(1,1)}}</style><g id="pg2" transform="translate(-140)"><g transform="translate(544.882 400.157)" style="animation:pg61_tr__tr 3000ms linear infinite normal forwards"><g id="pg61" transform="translate(-546 -403.434)"><path id="pg62" d="M556.825 394.984c-2.7-1-3.1-2.7-1.3-5.1 1.8-2.5 4-2.4 6.8.4 2.7 2.6 2.3 5.5-1.3 8.3-3.7 2.8-8.8 4.4-15.4 4.6" fill="none" stroke="#D9846A" stroke-width="2.9" stroke-linecap="round" stroke-linejoin="round"/></g></g><g transform="translate(508.466 434.484)" style="animation:pg63_ts__ts 3000ms linear infinite normal forwards"><g id="pg63" transform="translate(-508.466 -434.484)"><path id="pg64" d="M203.6 198.7c3.3 7.7 9.7 12.3 19.2 14 9.5 1.7 19.6 2.2 30.5 1.5 11-.6 18.6-2.2 22.7-4.6 4.1-2.5 6.4-8.6 6.8-18.4.3-9.7-2.5-18.2-8.4-25.7-6-7.4-17.5-11-34.5-10.6-17.1.2-28.2 5.7-33.5 16.4-5.2 10.6-6.1 19.8-2.8 27.4z" transform="translate(266.225 221.284)" fill="#F69D81" stroke="none" stroke-width="1"/><path id="pg65" d="M489.025 433.984c9.5 1.7 19.6 2.2 30.5 1.5 11-.6 18.6-2.2 22.7-4.6 4.1-2.5 6.4-8.6 6.8-18.4.3-9.7-2.5-18.2-8.4-25.7-6-7.4-17.5-11-34.5-10.6-17.1.2-28.2 5.7-33.5 16.4-5.2 10.6-6.1 19.8-2.8 27.4 3.3 7.7 9.7 12.3 19.2 14" fill="none" stroke="#9E7F72" stroke-width="2.9" stroke-linecap="round" stroke-linejoin="round"/></g></g><g transform="translate(390.125 349.885)" style="animation:pg66_tr__tr 3000ms linear infinite normal forwards"><g id="pg66" transform="translate(-390.125 -349.885)"><path id="pg67" d="M103.1 121.6c-5 2.1-9.8 7.9-14.3 17.2-4.6 9.4-6.5 19.9-5.6 31.5.8 11.6 5.8 14.6 14.7 9 9-5.5 19.1-9.6 30.3-12.3 11.2-2.6 19.2-8.4 24.1-17.3 4.9-9 4-15.8-2.9-20.6-6.7-4.6-15-7.6-24.6-8.8-9.5-1.2-16.8-.8-21.7 1.3z" transform="translate(266.225 221.284)" fill="#F69D81" stroke="none" stroke-width="1"/><path id="pg68" d="M355.025 360.084c-4.6 9.4-6.5 19.9-5.6 31.5.8 11.6 5.8 14.6 14.7 9 9-5.5 19.1-9.6 30.3-12.3 11.2-2.6 19.2-8.4 24.1-17.3 4.9-9 4-15.8-2.9-20.6-6.7-4.6-15-7.6-24.6-8.8-9.5-1.2-16.8-.8-21.7 1.3-5 2.1-9.8 7.9-14.3 17.2" fill="none" stroke="#9E7F72" stroke-width="2.9" stroke-linecap="round" stroke-linejoin="round"/></g></g><g id="pg69"><path id="pg70" d="M235 193.7c-3.4-.3-7 .3-10.6 1.9v10.6c3.1 2 6.4 2.9 9.8 2.8 3.4-.1 5.2-2.6 5.6-7.5.3-4.8-1.4-7.4-4.8-7.8z" transform="translate(266.225 221.284)" fill="#F69D81" stroke="none" stroke-width="1"/><path id="pg71" d="M490.625 416.884c3.6-1.6 7.2-2.2 10.6-1.9 3.4.4 5.1 3 4.8 7.8-.4 4.9-2.2 7.4-5.6 7.5-3.4.1-6.7-.8-9.8-2.8" fill="none" stroke="#9E7F72" stroke-width="2.9" stroke-linecap="round" stroke-linejoin="round"/><g id="pg72"><path id="pg73" d="M227.3 207.9c6.5 1.2 10.1-.8 10.9-5.8.7-5.1-1.9-8-8.1-8.8-6.3-.7-9.8 1.2-10.9 5.9-1 4.8 1.7 7.7 8.1 8.7z" transform="translate(266.225 221.284)" fill="#F69D81" stroke="none" stroke-width="1"/></g></g><g id="pg74"><path id="pg75" d="M117 211.6c10.6 4.9 27.1 7.5 49.4 7.8 22.4.4 37.3-3.3 44.7-11.1 7.5-7.8 13.5-21.1 18.2-39.8 4.6-18.8 0-34.1-13.7-46-13.8-12-31.5-18.1-53.5-18.4-21.9-.3-38.2 5.4-48.8 17-10.5 11.7-15.3 28.5-14.1 50.4 1.1 21.8 7.1 35.1 17.8 40.1z" transform="translate(267.315 220.57)" fill="#F69D81" stroke="none" stroke-width="1"/><path id="pg76" d="M432.625 440.684c22.4.4 37.3-3.3 44.7-11.1 7.5-7.8 13.5-21.1 18.2-39.8 4.6-18.8 0-34.1-13.7-46-13.8-12-31.5-18.1-53.5-18.4-21.9-.3-38.2 5.4-48.8 17-10.5 11.7-15.3 28.5-14.1 50.4 1.1 21.8 7.1 35.1 17.8 40.1 10.6 4.9 27.1 7.5 49.4 7.8" fill="none" stroke="#9E7F72" stroke-width="2.9" stroke-linecap="round" stroke-linejoin="round"/></g><g transform="translate(450.225 349.885)" style="animation:pg77_tr__tr 3000ms linear infinite normal forwards"><g id="pg77" transform="translate(-450.225 -349.885)"><path id="pg78" d="M244.6 137.2c-5.5-10.9-11.1-18.2-16.7-22.1-5.6-3.9-15.4-2.6-29.6 3.8-14 6.3-19.1 12.6-15 18.7 4 6.1 11.4 11.5 22 16.2 10.6 4.6 18.3 10.2 23.1 16.8 4.9 6.5 9.2 10 13 10.3 3.8.2 6.7-4.3 8.6-13.5 1.9-9.4.2-19.4-5.4-30.2z" transform="translate(266.225 221.284)" fill="#F69D81" stroke="none" stroke-width="1"/><path id="pg79" d="M510.825 358.484c5.6 10.8 7.3 20.8 5.4 30.2-1.9 9.2-4.8 13.7-8.6 13.5-3.8-.3-8.1-3.8-13-10.3-4.8-6.6-12.5-12.2-23.1-16.8-10.6-4.7-18-10.1-22-16.2-4.1-6.1 1-12.4 15-18.7 14.2-6.4 24-7.7 29.6-3.8 5.6 3.9 11.2 11.2 16.7 22.1" fill="none" stroke="#9E7F72" stroke-width="2.9" stroke-linecap="round" stroke-linejoin="round"/><g id="pg80"><path id="pg81" d="M229.3 118c-6.5-5.9-18.5-5.3-36 2-17.5 7.2-18.5 15-2.7 23.2l38.7-25.2z" transform="translate(266.225 221.284)" fill="#F69D81" stroke="none" stroke-width="1"/></g></g></g><g id="pg82"><path id="pg83" d="M276.3 213.1c5.1-.3 10.1-.4 15.3-.3 5.2.1 8.8-1 11-3.2 2.2-2.1 1.3-5.5-2.6-10.3-3.9-4.8-10.4-7-19.6-6.6-9.3.5-15.2 1.7-18 3.6-2.6 1.9-4 4.6-4 7.8 0 3.1 1.7 5.5 5.2 7 3.3 1.5 7.6 2.1 12.7 2z" transform="translate(266.225 221.284)" fill="#F69D81" stroke="none" stroke-width="1"/><path id="pg84" d="M557.825 434.084c5.2.1 8.8-1 11-3.2 2.2-2.1 1.3-5.5-2.6-10.3-3.9-4.8-10.4-7-19.6-6.6-9.3.5-15.2 1.7-18 3.6-2.6 1.9-4 4.6-4 7.8 0 3.1 1.7 5.5 5.2 7 3.3 1.5 7.6 2.1 12.7 2 5.1-.3 10.1-.4 15.3-.3" fill="none" stroke="#9E7F72" stroke-width="2.9" stroke-linecap="round" stroke-linejoin="round"/><g id="pg85"><path id="pg86" d="M283.1 192.6c-9-1.5-15.1-1.6-18.4-.2-3.3 1.3-5.8 3.7-7.5 7.4-1.7 3.6-1.5 6.3.7 8 2.1 1.7 5.7 2.4 10.8 2.3 5.1-.3 10.2-.4 15.3-.3 5.1.1 9.4-.5 12.9-1.7 3.5-1.1 4.4-3.6 2.4-7.5-1.9-3.8-7.4-6.5-16.2-8z" transform="translate(266.225 221.284)" fill="#F69D81" stroke="none" stroke-width="1"/></g></g><g id="pg87" fill="none" stroke="#9E7F72" stroke-width="2.9" stroke-linecap="round" stroke-linejoin="round"><path id="pg88" d="M128.9 158.9c-1.4 4.2-5.7 6.6-12.9 7.1-7.2.4-10.7-2.5-10.8-8.9" transform="translate(266.225 221.284)"/><path id="pg89" d="M199.5 161.1c-3.2 6.4-8.6 9.5-16.2 9.7-7.6.1-12.5-3.2-14.8-9.7" transform="translate(266.225 221.284)"/></g><g transform="translate(390.125 414.443)" style="animation:pg90_ts__ts 3000ms linear infinite normal forwards"><g id="pg90" transform="translate(-390.125 -414.443)"><path id="pg91" d="M418.525 388.584c-4.6-4.1-10.2-6.2-16.9-6.2-6.6 0-12.2 2.1-16.9 6.2-4.7 4.2-7 9.1-7 14.9 0 5.8 2.3 10.7 7 14.9 4.7 4.1 10.3 6.1 16.9 6.1 6.7 0 12.3-2 16.9-6.1 4.8-4.2 7.1-9.1 7.1-14.9 0-5.8-2.3-10.7-7.1-14.9" fill="none" stroke="#9E7F72" stroke-width="2.9" stroke-linecap="round" stroke-linejoin="round"/><g id="pg92"><path id="pg93" d="M161.2 180.5c0-5.6-2.4-10.4-7.1-14.3-4.7-3.7-10.4-5.5-17-5.2-6.7.2-12.4 2.5-17.1 6.6-4.7 4.3-7.1 9.3-7.1 14.9s2.4 10.4 7.1 14.2c4.7 3.9 10.4 5.6 17.1 5.4 6.6-.3 12.3-2.5 17-6.8 4.7-4.2 7.1-9.2 7.1-14.8z" transform="translate(266.225 221.284)" fill="#F69D81" stroke="none" stroke-width="1"/></g><g id="pg94"><path id="pg95" d="M386.025 398.484c-1.1.9-1.6 2.2-1.6 3.5 0 1.4.5 2.5 1.6 3.5 1.2 1 2.5 1.5 4.1 1.5 1.6 0 2.9-.5 4-1.5 1.2-1 1.7-2.1 1.7-3.5 0-1.3-.6-2.6-1.8-3.5-1-1-2.4-1.5-4-1.5-1.5 0-2.9.5-4 1.5" fill="none" stroke="#9E7F72" stroke-width="2.9" stroke-linecap="round" stroke-linejoin="round"/><g id="pg96"><path id="pg97" d="M125.7 176.1c-1.7 0-3.2.6-4.5 1.7-1.2 1.1-1.9 2.4-1.9 3.9 0 1.6.7 3 1.9 4 1.3 1.2 2.9 1.8 4.6 1.8 1.8 0 3.3-.6 4.5-1.8 1.3-1 1.9-2.4 1.9-4 0-1.5-.7-2.8-2-3.9-1.2-1.1-2.7-1.7-4.5-1.7z" transform="translate(266.225 221.284)" fill="#F69D81" stroke="none" stroke-width="1"/></g></g><g id="pg98"><path id="pg99" d="M402.125 406.484c1.2 1 2.5 1.5 4.1 1.5 1.6 0 2.9-.5 4-1.5 1.2-1 1.7-2.1 1.7-3.5 0-1.3-.6-2.6-1.8-3.5-1.1-1-2.4-1.5-4-1.5s-2.9.5-4.1 1.5c-1 .9-1.5 2.2-1.5 3.5 0 1.4.5 2.5 1.6 3.5" fill="none" stroke="#9E7F72" stroke-width="2.9" stroke-linecap="round" stroke-linejoin="round"/><g id="pg100"><path id="pg101" d="M141.8 177.1c-1.7 0-3.2.6-4.5 1.8-1.2 1.1-1.9 2.5-1.9 4.2 0 1.5.7 3 1.9 4.1 1.3 1.2 2.9 1.9 4.6 1.9 1.8 0 3.3-.7 4.5-1.9a5.3 5.3 0 0 0 1.9-4.1c0-1.7-.7-3.1-2-4.2-1.2-1.2-2.7-1.8-4.5-1.8z" transform="translate(266.225 221.284)" fill="#F69D81" stroke="none" stroke-width="1"/></g></g></g></g><g style="animation:pg136_to__to 3000ms linear infinite normal forwards"><g transform="translate(439.225 434.484)" style="animation:pg136_ts__ts 3000ms linear infinite normal forwards"><g id="pg136" transform="translate(-439.225 -434.484)"><path id="pg137" d="M175.9 216.1c.9-.7 1.3-1.7 1.3-2.9s-.4-2.2-1.3-3c-.8-.8-1.8-1.2-3-1.2-1.1 0-2.1.4-2.9 1.2-.8.8-1.2 1.8-1.2 3s.4 2.2 1.2 2.9c.8.8 1.8 1.3 2.9 1.3 1.2 0 2.2-.5 3-1.3z" transform="translate(266.225 221.284)" fill="#F69D81" stroke="none" stroke-width="1"/><path id="pg138" d="M443.425 434.484c0-1.2-.4-2.2-1.3-3-.8-.8-1.8-1.2-3-1.2-1.1 0-2.1.4-2.9 1.2-.8.8-1.2 1.8-1.2 3s.4 2.2 1.2 2.9c.8.8 1.8 1.3 2.9 1.3 1.2 0 2.2-.5 3-1.3.9-.7 1.3-1.7 1.3-2.9" fill="none" stroke="#9E7F72" stroke-width="2.9" stroke-linecap="round" stroke-linejoin="round"/></g></g></g></g></svg>