<svg version="1.1" id="Layer_1" xmlns="http://www.w3.org/2000/svg" xmlns:xlink="http://www.w3.org/1999/xlink" x="0px" y="0px"
	 width="231px" height="234px" viewBox="0 0 231 234" style="enable-background:new 0 0 231 234;" xml:space="preserve">
	<style>
		:root {
			--colorPig: #F69D81;
			--colorPigLine: #9E7F72;
			--colorPigTail: #D9846A;
			--colorPigEye: #454351;
			--colorPigEyeW: white;
			--colorPigMouth: #655D5C;
			--colorPigTongue: #E07450;
		}
		g {
			--colorPig: #DDD;
			--colorPigLine: #888;
			--colorPigTail: #999;
			--colorPigEye: #666;
			--colorPigEyeW: #EEE;
			--colorPigMouth: #999;
			--colorPigTongue: #BBB;

			--ccolorPig: #8CDBD4;
			--ccolorPigLine: #3B596D;
			--ccolorPigTail: #376677;
			--ccolorPigEye: #376677;
			--ccolorPigEyeW: #EEE;
			--ccolorPigMouth: #1E9397;
			--ccolorPigTongue: #80D3D5;
		}
	</style>
<g>
	<path style="fill:var(--colorPig);" d="M80.7,196.8c-5.9-2.9-12.6-3.5-19.7-1.6c-7.1,1.9-12.1,3.6-14.9,5.4c-2.7,1.7-4.5,4.2-5.1,7.4
		s0.8,5.3,4.2,6.4c3.4,1.1,7.1,1.5,11.2,1.2c4-0.4,9.5-0.7,16.7-1.1c7-0.3,11.5-2.7,13.5-6.9C88.6,203.3,86.6,199.7,80.7,196.8z"/>
	<path style="fill:none;stroke:var(--colorPigLine);stroke-width:2.9;stroke-linecap:round;stroke-linejoin:round;" d="M61,195.2
		c-7.1,1.9-12.1,3.6-14.9,5.4c-2.7,1.7-4.5,4.2-5.1,7.4s0.8,5.3,4.2,6.4c3.4,1.1,7.1,1.5,11.2,1.2c4-0.4,9.5-0.7,16.7-1.1
		c7-0.3,11.5-2.7,13.5-6.9c2-4.3,0-7.9-5.9-10.8C74.8,193.9,68.1,193.3,61,195.2"/>
	<path style="fill:none;stroke:var(--colorPigTail);stroke-width:2.9;stroke-linecap:round;stroke-linejoin:round;" d="M134.4,181.6
		c-2.7-0.9-3.1-2.7-1.3-5.1c1.7-2.4,4-2.3,6.7,0.3c2.8,2.8,2.3,5.5-1.3,8.4c-3.6,2.9-8.7,4.4-15.4,4.6"/>
	<g>
		<path style="fill:var(--colorPig);" d="M65.7,171.6c-2.5-2.8-5.4-4.5-8.7-5.2c-3.4-0.7-5.9,1.2-7.4,5.8c-1.5,4.5-0.7,7.5,2.6,8.7
			c3.2,1.2,6.9,1.5,10.7,1L65.7,171.6z"/>
		<path style="fill:none;stroke:var(--colorPigLine);stroke-width:2.9;stroke-linecap:round;stroke-linejoin:round;" d="M62.9,181.9
			c-3.8,0.5-7.5,0.2-10.7-1c-3.3-1.2-4.1-4.2-2.6-8.7c1.5-4.6,4-6.5,7.4-5.8c3.3,0.7,6.2,2.4,8.7,5.2"/>
		<g>
			<path style="fill:var(--colorPig);" d="M63.3,169.1c-6-2.4-9.9-2-11.6,1.3c-1.6,3.3,0.4,5.9,6.3,7.9s9.8,1.6,11.6-1.3
				C71.4,174.2,69.4,171.4,63.3,169.1z"/>
		</g>
	</g>
	<g>
		<path style="fill:var(--colorPig);" d="M93.8,145c-8.7,0-16,3.9-22.2,11.8c-6.2,7.9-9.2,17.4-9.2,28.6c0,11.2,2.1,18.8,6.4,22.9
			c4.2,4.1,11.1,6.2,20.8,6.5c9.7,0.2,18-1.8,25-6.1c7.1-4.4,10.6-12.1,10.6-23.3c0-11.2-3.1-20.7-9.2-28.6
			C109.9,148.9,102.4,145,93.8,145z"/>
		<path style="fill:none;stroke:var(--colorPigLine);stroke-width:2.9;stroke-linecap:round;stroke-linejoin:round;" d="M71.6,156.8
			c-6.2,7.9-9.2,17.4-9.2,28.6c0,11.2,2.1,18.8,6.4,22.9c4.2,4.1,11.1,6.2,20.8,6.5c9.7,0.2,18-1.8,25-6.1
			c7.1-4.4,10.6-12.1,10.6-23.3c0-11.2-3.1-20.7-9.2-28.6c-6.1-7.9-13.6-11.8-22.2-11.8C85.1,145,77.8,148.9,71.6,156.8"/>
	</g>
	<g>
		<path style="fill:var(--colorPig);" d="M108.5,167.8H97.8c-2,3.1-2.9,6.4-2.7,9.8c0.1,3.3,2.6,5.2,7.5,5.6c4.8,0.2,7.3-1.4,7.7-4.8
			C110.6,174.9,110.1,171.4,108.5,167.8z"/>
		<path style="fill:none;stroke:var(--colorPigLine);stroke-width:2.9;stroke-linecap:round;stroke-linejoin:round;" d="M97.8,167.8
			c-2,3.1-2.9,6.4-2.7,9.8c0.1,3.3,2.6,5.2,7.5,5.6c4.8,0.2,7.3-1.4,7.7-4.8c0.3-3.5-0.2-7-1.8-10.6"/>
		<g>
			<path style="fill:var(--colorPig);" d="M96.1,170.7c-1.1,6.5,0.8,10.1,5.8,10.9c5,0.7,7.7-1.9,8.3-8.2c0.6-6.2-1.4-9.7-5.8-10.8
				C99.9,161.6,97.1,164.3,96.1,170.7z"/>
		</g>
	</g>
	<g>
		<path style="fill:var(--colorPig);" d="M74.6,64.6c0.7-5.4-1.9-12.4-7.7-21c-5.8-8.7-14-15.5-24.5-20.6c-10.4-5.1-15.5-2.3-15.1,8.2
			c0.3,10.6-1.2,21.4-4.5,32.4c-3.4,11-2.4,20.9,2.9,29.6c5.3,8.7,11.7,11.3,19.2,7.7c7.5-3.5,14.2-9.1,20-16.8
			C70.8,76.4,74,69.9,74.6,64.6z"/>
		<path style="fill:none;stroke:var(--colorPigLine);stroke-width:2.9;stroke-linecap:round;stroke-linejoin:round;" d="M66.9,43.6
			c-5.8-8.7-14-15.5-24.5-20.6c-10.4-5.1-15.5-2.3-15.1,8.2c0.3,10.6-1.2,21.4-4.5,32.4c-3.4,11-2.4,20.9,2.9,29.6
			c5.3,8.7,11.7,11.3,19.2,7.7c7.5-3.5,14.2-9.1,20-16.8c5.9-7.7,9.1-14.2,9.7-19.5C75.3,59.2,72.7,52.2,66.9,43.6"/>
	</g>
	<g>
		<path style="fill:var(--colorPig);" d="M138.7,154.3c9.7-9.1,16.8-23,21.4-41.7c4.7-18.8,0.2-34.2-13.6-46c-13.7-12-31.6-18.1-53.5-18.4
			c-21.9-0.3-38.2,5.4-48.7,17c-10.7,11.7-17.2,26.5-19.5,44.5c-2.4,17.9,2.6,31.9,15.3,41.8c12.5,9.9,29.7,15.1,51.5,15.7
			C113.3,167.7,129,163.4,138.7,154.3z"/>
		<path style="fill:none;stroke:var(--colorPigLine);stroke-width:2.9;stroke-linecap:round;stroke-linejoin:round;" d="M160.1,112.6
			c4.7-18.8,0.2-34.2-13.6-46c-13.7-12-31.6-18.1-53.5-18.4c-21.9-0.3-38.2,5.4-48.7,17c-10.7,11.7-17.2,26.5-19.5,44.5
			c-2.4,17.9,2.6,31.9,15.3,41.8c12.5,9.9,29.7,15.1,51.5,15.7c21.7,0.5,37.4-3.8,47.1-12.9C148.4,145.2,155.5,131.3,160.1,112.6"/>
	</g>
	<g>
		<path style="fill:var(--colorPig);" d="M171.1,53.1c-11.5,4-19.5,8.6-24.1,13.6s-4.6,14.9-0.1,29.8c4.4,14.8,9.9,20.7,16.5,17.4
			c6.7-3.2,13-9.8,19-19.7c6-10,12.5-16.8,19.7-20.8c7.2-3.9,11.1-7.7,11.8-11.5c0.8-3.7-3.3-7.2-12.3-10.3
			C192.7,48.4,182.5,48.9,171.1,53.1z"/>
		<path style="fill:none;stroke:var(--colorPigLine);stroke-width:2.9;stroke-linecap:round;stroke-linejoin:round;" d="M171.1,53.1
			c11.4-4.2,21.6-4.7,30.5-1.5c9,3.1,13.1,6.6,12.3,10.3c-0.7,3.8-4.6,7.6-11.8,11.5c-7.2,4-13.7,10.8-19.7,20.8
			c-6,9.9-12.3,16.5-19,19.7c-6.6,3.3-12.1-2.6-16.5-17.4c-4.5-14.9-4.5-24.8,0.1-29.8S159.6,57.1,171.1,53.1"/>
		<g>
			<path style="fill:var(--colorPig);" d="M143.2,97.4c4.4,15.7,11.3,20.5,20.5,14.5l-13.9-45.3C140.9,71.6,138.7,81.8,143.2,97.4z"/>
		</g>
	</g>
	<g id="eyes">
		<path style="fill:var(--colorPigEye);" d="M44.4,106.2c1.4-2.8,1.8-5.9,1.3-9.1c-0.5-3.4-1.9-6.1-4.4-8.3c-2.4-2.2-5.2-3-8.6-2.1
			c-3.4,0.7-6,2.6-7.8,5.6c-1.8,2.9-2.3,6.1-1.5,9.5c0.7,3.4,2.6,6,5.5,7.9c3,1.7,6,2.4,8.9,1.7C40.8,110.7,42.9,109.1,44.4,106.2z
			 M37.6,90.8c1.8,1.2,2.7,2.9,2.7,4.9s-1.1,2.9-3.4,2.5c-2.2-0.5-3.8-0.4-4.6,0.3c-0.9,0.7-1.7,1.2-2.5,1.3c-0.8,0.3-1.5-0.5-2-2
			c-0.7-1.6-0.4-3.4,0.5-5.2c1-1.9,2.3-2.9,4-3.2C34.1,89.2,35.8,89.7,37.6,90.8z"/>
		<path style="fill:var(--colorPigEyeW);" d="M40.3,95.7c0-2-0.9-3.7-2.7-4.9c-1.8-1.1-3.5-1.6-5.3-1.4c-1.7,0.3-3,1.3-4,3.2
			c-0.9,1.8-1.2,3.6-0.5,5.2c0.5,1.5,1.2,2.3,2,2c0.8-0.1,1.6-0.6,2.5-1.3c0.8-0.7,2.4-0.8,4.6-0.3C39.2,98.6,40.3,97.7,40.3,95.7z"
			/>
		<path style="fill:var(--colorPigEye);" d="M129.8,98.8c-2.9,2.5-4.8,5.6-5.5,9.4c-0.8,3.7,0.3,7,3.1,9.9c2.9,2.8,6.3,4.2,10.4,4.2
			c4,0,7.4-1.4,10.3-4.2c2.8-2.9,4.3-6.3,4.3-10.4c0-4-1.3-7.3-3.6-9.8c-2.5-2.5-5.5-3.6-9.2-3.3C136,94.9,132.8,96.3,129.8,98.8z
			 M131.6,106.3c-0.4-1.5,0.3-3.2,2-5.2c1.7-2,4-2.9,7-2.8c2.8,0.3,4.8,1.3,6,3.1c1,1.8,1.5,3.4,1.3,4.9c-0.3,1.4-1.3,1.6-3.2,0.6
			c-1.8-1.1-3.8-1.3-5.7-0.9s-3.6,0.9-4.9,1.6C132.7,108.2,131.9,107.7,131.6,106.3z"/>
		<path style="fill:var(--colorPigEyeW);" d="M133.6,101.1c-1.7,2-2.4,3.7-2,5.2c0.3,1.4,1.1,1.9,2.5,1.3c1.3-0.7,3-1.2,4.9-1.6s3.9-0.2,5.7,0.9
			c1.9,1,2.9,0.8,3.2-0.6c0.2-1.5-0.3-3.1-1.3-4.9c-1.2-1.8-3.2-2.8-6-3.1C137.6,98.2,135.3,99.1,133.6,101.1z"/>
	</g>
	<g id="mouth">
		<g>
			<path style="fill:var(--colorPigMouth);" d="M107.9,144c6.9-8.1,10.5-14.3,10.9-18.5c0.3-4.3-3.4-8.2-11.4-11.8c-8-3.6-18.1-6.8-30.5-9.5
				c-12.3-2.8-21.8-2.9-28.3-0.3c-6.5,2.7-9.3,8.7-8.4,18.2c0.9,9.4,5.4,17.6,13.4,24.6s17.4,10.3,28,10
				C92.3,156.3,101.1,152.1,107.9,144z"/>
		</g>
		<g>
			<path style="fill:var(--colorPigTongue);" d="M118.8,125.5c0-0.3,0-0.6,0-0.8c-38.6,0.9-59,9.2-61.2,25c7,4.9,15.1,7.2,24,7
				c10.7-0.4,19.5-4.6,26.3-12.7C114.8,135.9,118.4,129.7,118.8,125.5z"/>
		</g>
		<g>
			<path style="fill:none;stroke:var(--colorPigLine);stroke-width:2.9;stroke-linecap:round;stroke-linejoin:round;" d="M118.8,125.5
				c0.3-4.3-3.4-8.2-11.4-11.8c-8-3.6-18.1-6.8-30.5-9.5c-12.3-2.8-21.8-2.9-28.3-0.3c-6.5,2.7-9.3,8.7-8.4,18.2
				c0.9,9.4,5.4,17.6,13.4,24.6s17.4,10.3,28,10c10.7-0.4,19.5-4.6,26.3-12.7C114.8,135.9,118.4,129.7,118.8,125.5"/>
		</g>
	</g>
	<g id="nose">
		<path style="fill:none;stroke:var(--colorPigLine);stroke-width:2.9;stroke-linecap:round;stroke-linejoin:round;" d="M94.6,89.5
			c-4.6-4.1-10.2-6.1-16.8-6.1c-6.7,0-12.3,2-17,6.1c-4.7,4.2-7,9.1-7,14.9c0,5.8,2.3,10.8,7,14.8c4.7,4.2,10.3,6.2,17,6.2
			c6.6,0,12.2-2,16.8-6.2c4.8-4,7.1-9,7.1-14.8C101.7,98.6,99.4,93.7,94.6,89.5"/>
		<g>
			<path style="fill:var(--colorPig);" d="M103.5,102.7c0-5.6-2.4-10.4-7.1-14.3c-4.7-3.8-10.4-5.5-17-5.3c-6.7,0.3-12.4,2.6-17.1,6.7
				c-4.7,4.3-7.1,9.3-7.1,14.9c0,5.6,2.4,10.4,7.1,14.2c4.7,3.8,10.4,5.6,17.1,5.3c6.6-0.2,12.3-2.5,17-6.7
				C101.1,113.3,103.5,108.3,103.5,102.7z"/>
		</g>
		<g>
			<path style="fill:none;stroke:var(--colorPigLine);stroke-width:2.9;stroke-linecap:round;stroke-linejoin:round;" d="M62.1,99.4
				c-1.1,0.9-1.7,2.2-1.7,3.5c0,1.3,0.6,2.5,1.7,3.5c1.2,1,2.5,1.5,4.1,1.5c1.6,0,2.9-0.5,4-1.5c1.2-1,1.7-2.2,1.7-3.5
				c0-1.3-0.6-2.6-1.8-3.5c-1-1-2.4-1.5-4-1.5C64.6,97.9,63.2,98.4,62.1,99.4"/>
			<g>
				<path style="fill:var(--colorPig);" d="M68,98.3c-1.7,0-3.2,0.6-4.6,1.7c-1.1,1.1-1.8,2.4-1.8,3.9c0,1.6,0.7,3,1.9,4
					c1.3,1.2,2.9,1.8,4.6,1.8c1.8,0,3.3-0.6,4.5-1.8c1.3-1,1.9-2.4,1.9-4c0-1.5-0.7-2.8-2-3.9C71.3,98.9,69.8,98.3,68,98.3z"/>
			</g>
		</g>
		<g>
			<path style="fill:none;stroke:var(--colorPigLine);stroke-width:2.9;stroke-linecap:round;stroke-linejoin:round;" d="M78.2,107.4
				c1.2,1,2.6,1.5,4.1,1.5c1.6,0,3-0.5,4-1.5c1.1-1,1.7-2.2,1.7-3.5c0-1.3-0.6-2.6-1.7-3.5c-1.2-1-2.5-1.5-4.1-1.5
				c-1.6,0-2.9,0.5-4.1,1.5c-1,0.9-1.5,2.2-1.5,3.5C76.6,105.2,77.1,106.4,78.2,107.4"/>
			<g>
				<path style="fill:var(--colorPig);" d="M84.1,99.3c-1.7,0-3.2,0.6-4.5,1.8c-1.2,1.1-1.8,2.5-1.8,4.1c0,1.6,0.6,3.1,1.8,4.2
					c1.3,1.3,2.8,1.8,4.6,1.8c1.8,0,3.3-0.5,4.5-1.8c1.2-1.1,1.9-2.6,1.9-4.2c0-1.6-0.7-3-2-4.1C87.4,99.9,85.9,99.3,84.1,99.3z"/>
			</g>
		</g>
	</g>
	<g id="leg-right">
		<path style="fill:var(--colorPig);" d="M112.9,215.5c5.1-0.2,10.2-0.3,15.4-0.2c5.1,0,8.8-1,11-3.1c2.1-2.2,1.3-5.6-2.7-10.4
			c-3.8-4.8-10.4-7-19.6-6.6c-9.2,0.5-15.1,1.6-17.9,3.6c-2.7,1.9-4,4.5-4,7.8c0,3.1,1.7,5.5,5.1,7
			C103.6,215.1,107.9,215.7,112.9,215.5z"/>
		<path style="fill:none;stroke:var(--colorPigLine);stroke-width:2.9;stroke-linecap:round;stroke-linejoin:round;" d="M128.3,215.3
			c5.1,0,8.8-1,11-3.1c2.1-2.2,1.3-5.6-2.7-10.4c-3.8-4.8-10.4-7-19.6-6.6c-9.2,0.5-15.1,1.6-17.9,3.6c-2.7,1.9-4,4.5-4,7.8
			c0,3.1,1.7,5.5,5.1,7c3.4,1.5,7.7,2.1,12.7,1.9C118,215.3,123.1,215.2,128.3,215.3"/>
		<g>
			<path style="fill:var(--colorPig);" d="M119.9,194.4c-9-1.4-15.1-1.3-18.5,0.2c-3.3,1.5-5.9,4.1-7.5,7.7c-1.8,3.6-1.5,6.3,0.6,8
				c2.1,1.7,5.8,2.4,10.9,2.3c5-0.3,10.1-0.4,15.2-0.3c5.2,0,9.5-0.5,13-1.6c3.5-1.2,4.3-3.9,2.5-8
				C134.3,198.6,128.9,195.8,119.9,194.4z"/>
		</g>
	</g>
</g>
</svg>
