<svg width="220" height="230" viewBox="0 0 220 230"><style>

  :root {
      --colorPig: #F69D81;
      --colorPigLine: #9E7F72;
      --colorPigTail: #D9846A;
      --colorPigEye: #454351;
      --colorPigEyeW: white;
      --colorPigMouth: #655D5C;
      --colorPigTongue: #E07450;
  }

  .n1 {
    fill: none;
    stroke: #9E7F72;
    stroke-width: 2.9;
    stroke-linecap: round;
    stroke-linejoin: round;
  }

  .fill--pig { fill: var(--colorPig); }
  .fill--pig { fill: var(--colorPig); }

  .stroke-none {
    stroke: none;
  }

  @keyframes pg3_tr__tr{
	0%,50%,to{transform:translate(119.1px,184.0px) rotate(0deg)}23%{transform:translate(119.1px,184.0px) rotate(4.2deg)}75%{transform:translate(119.1px,184.0px) rotate(6.9deg)}
  }
  @keyframes pg8_tr__tr{
	0%{transform:translate(66.1px,169.7px) rotate(35.7deg)}20%{transform:translate(66.1px,169.7px) rotate(-38.6deg)}50%,to{transform:translate(66.1px,169.7px) rotate(33.4deg)}75%{transform:translate(66.1px,169.7px) rotate(-43.1deg)}
  }
  @keyframes pg16_tr__tr{
	0%,50%,to{transform:translate(98.6px,163.5px) rotate(0deg)}23%{transform:translate(98.6px,163.5px) rotate(8.2deg)}75%{transform:translate(98.6px,163.5px) rotate(5.4deg)}
  }
  @keyframes pg21_tr__tr{
	0%{transform:translate(84.1px,154.6px) rotate(2.5deg);animation-timing-function:cubic-bezier(.645,.045,.355,1)}50%{transform:translate(84.1px,154.6px) rotate(-3.2deg);animation-timing-function:cubic-bezier(.645,.045,.355,1)}to{transform:translate(84.1px,154.6px) rotate(2.5deg)}
  }
  @keyframes pg22_tr__tr{
	0%{transform:translate(56.9px,82.7px) rotate(-7deg);animation-timing-function:cubic-bezier(.645,.045,.355,1)}50%{transform:translate(56.9px,82.7px) rotate(4.7deg);animation-timing-function:cubic-bezier(.645,.045,.355,1)}to{transform:translate(56.9px,82.7px) rotate(-7deg)}
  }
  @keyframes pg28_tr__tr{
	0%{transform:translate(144.0px,85.6px) rotate(-13deg);animation-timing-function:cubic-bezier(.645,.045,.355,1)}50%{transform:translate(144.0px,85.6px) rotate(7.6deg);animation-timing-function:cubic-bezier(.645,.045,.355,1)}to{transform:translate(144.0px,85.6px) rotate(-13deg)}
  }
</style><g id="pg2"><g transform="translate(119.1 184.0)" style="animation:pg3_tr__tr 1000ms linear infinite normal forwards"><g id="pg3" transform="translate(-119.1 -184.0)"><path id="pg4" d="M130.4 175.8c-2.8-.9-3.2-2.6-1.4-5 1.7-2.5 4-2.4 6.7.3 2.8 2.7 2.4 5.5-1.2 8.4-3.6 2.8-8.8 4.3-15.4 4.5" fill="none" stroke="#D9846A" stroke-width="2.9" stroke-linecap="round" stroke-linejoin="round"/></g></g><g id="pg5"><path id="pg6" d="M158.2 421.1c-7.2 1.8-12.2 3.6-14.9 5.3-2.8 1.8-4.5 4.2-5.1 7.5-.7 3.2.7 5.3 4.1 6.4 3.5 1.1 7.1 1.5 11.2 1.1 4.1-.3 9.6-.7 16.7-1 7.1-.3 11.6-2.7 13.6-7 2-4.2 0-7.8-6-10.7-5.9-3-12.5-3.5-19.6-1.6z" transform="translate(-101.1 -231.5)" class="stroke-none fill--pig"/><path id="pg7" d="M42.1 194.8c-2.8 1.8-4.5 4.2-5.1 7.5-.7 3.2.7 5.3 4.1 6.4 3.5 1.1 7.1 1.5 11.2 1.1 4.1-.3 9.6-.7 16.7-1 7.1-.3 11.6-2.7 13.6-7 2-4.2 0-7.8-6-10.7-5.9-3-12.5-3.5-19.6-1.6-7.2 1.8-12.2 3.6-14.9 5.3" class="n1"/></g><g transform="rotate(35.7 -230.3 187.5)" style="animation:pg8_tr__tr 1000ms linear infinite normal forwards"><g id="pg8" transform="translate(-66.1 -169.7)"><path id="pg9" d="M162.8 397.4c-2.5-2.8-5.4-4.5-8.6-5.2-3.4-.7-5.9 1.2-7.4 5.9-1.5 4.5-.7 7.4 2.5 8.6 3.3 1.2 6.9 1.6 10.8 1l2.7-10.3z" transform="translate(-101.1 -231.5)" class="stroke-none fill--pig"/><path id="pg10" d="M58.9 176.1c-3.9.6-7.5.2-10.8-1-3.2-1.2-4-4.1-2.5-8.6 1.5-4.7 4-6.6 7.4-5.9 3.2.7 6.1 2.4 8.6 5.2" class="n1"/><g id="pg11"><path id="pg12" d="M160.4 394.9c-6-2.4-9.8-2-11.6 1.3-1.6 3.4.5 6 6.4 7.9 5.9 2 9.7 1.6 11.5-1.2 1.9-2.9-.2-5.6-6.3-8z" transform="translate(-101.1 -231.5)" class="stroke-none fill--pig"/></g></g></g><g id="pg13"><path id="pg14" d="M190.9 370.9c-8.6 0-16 3.9-22.1 11.7-6.2 8-9.2 17.5-9.2 28.6 0 11.2 2.1 18.9 6.3 22.9 4.3 4.1 11.2 6.3 20.9 6.6 9.6.2 18-1.9 25-6.2 7-4.4 10.5-12.1 10.5-23.3 0-11.1-3-20.6-9.1-28.6-6.2-7.8-13.6-11.7-22.3-11.7z" transform="translate(-101.1 -231.5)" class="stroke-none fill--pig"/><path id="pg15" d="M67.6 151.0c-6.2 8-9.2 17.5-9.2 28.6 0 11.2 2.1 18.9 6.3 22.9 4.3 4.1 11.2 6.3 20.9 6.6 9.6.2 18-1.9 25-6.2 7-4.4 10.5-12.1 10.5-23.3 0-11.1-3-20.6-9.1-28.6-6.2-7.8-13.6-11.7-22.3-11.7-8.6 0-16 3.9-22.1 11.7" class="n1"/></g><g transform="translate(98.6 163.5)" style="animation:pg16_tr__tr 1000ms linear infinite normal forwards"><g id="pg16" transform="translate(-98.6 -163.5)"><path id="pg17" d="M205.7 393.6h-10.8c-2 3.1-2.8 6.4-2.7 9.8.1 3.4 2.6 5.2 7.5 5.6 4.8.3 7.4-1.3 7.7-4.8.4-3.4-.2-7-1.7-10.6z" transform="translate(-101.1 -231.5)" class="stroke-none fill--pig"/><path id="pg18" d="M93.7 162.0c-2 3.1-2.8 6.4-2.7 9.8.1 3.4 2.6 5.2 7.5 5.6 4.8.3 7.4-1.3 7.7-4.8.4-3.4-.2-7-1.7-10.6" class="n1"/><g id="pg19"><path id="pg20" d="M193.3 396.6c-1.1 6.5.8 10 5.8 10.8 5 .8 7.7-1.9 8.2-8.1.6-6.2-1.4-9.8-5.8-10.9-4.4-1-7.2 1.7-8.2 8.2z" transform="translate(-101.1 -231.5)" class="stroke-none fill--pig"/></g></g></g><g transform="rotate(2.5 -3439.8 1970.3)" style="animation:pg21_tr__tr 1000ms linear infinite normal forwards"><g id="pg21" transform="translate(-84.1 -154.6)"><g transform="rotate(-7 705.1 -424.0)" style="animation:pg22_tr__tr 1000ms linear infinite normal forwards"><g id="pg22" transform="translate(-56.9 -82.7)"><path id="pg23" d="M171.8 290.4c.6-5.3-2-12.3-7.7-21-5.9-8.7-14-15.5-24.5-20.5-10.4-5.1-15.5-2.3-15.2 8.2.3 10.5-1.2 21.3-4.5 32.3-3.3 11.1-2.3 21 2.9 29.7 5.4 8.6 11.8 11.3 19.3 7.7 7.4-3.6 14.1-9.2 20-16.9 5.8-7.7 9.1-14.2 9.7-19.5z" transform="translate(-101.1 -231.5)" class="stroke-none fill--pig"/><path id="pg24" d="M62.9 37.8c-5.9-8.7-14-15.5-24.5-20.5-10.4-5.1-15.5-2.3-15.2 8.2.3 10.5-1.2 21.3-4.5 32.3-3.3 11.1-2.3 21 2.9 29.7 5.4 8.6 11.8 11.3 19.3 7.7 7.4-3.6 14.1-9.2 20-16.9 5.8-7.7 9.1-14.2 9.7-19.5.6-5.3-2-12.3-7.7-21" class="n1"/></g></g><g id="pg25"><path id="pg26" d="M235.8 380.2c9.7-9.1 16.9-23.1 21.5-41.8 4.6-18.8.1-34.1-13.6-46-13.8-12-31.6-18-53.5-18.3-22-.4-38.3 5.3-48.8 17-10.6 11.6-17.1 26.5-19.5 44.4-2.4 17.9 2.7 31.9 15.3 41.9 12.6 9.8 29.7 15 51.5 15.6 21.7.6 37.5-3.8 47.1-12.8z" transform="translate(-101.1 -231.5)" class="stroke-none fill--pig"/><path id="pg27" d="M156.1 106.8c4.6-18.8.1-34.1-13.6-46-13.8-12-31.6-18-53.5-18.3-22-.4-38.3 5.3-48.8 17-10.6 11.6-17.1 26.5-19.5 44.4-2.4 17.9 2.7 31.9 15.3 41.9 12.6 9.8 29.7 15 51.5 15.6 21.7.6 37.5-3.8 47.1-12.8 9.7-9.1 16.9-23.1 21.5-41.8" class="n1"/></g><g transform="rotate(-13 447.9 -589.1)" style="animation:pg28_tr__tr 1000ms linear infinite normal forwards"><g id="pg28" transform="translate(-144.0 -85.6)"><path id="pg29" d="M268.2 278.9c-11.5 4.1-19.5 8.7-24 13.7-4.6 5-4.6 14.9-.2 29.8 4.4 14.8 9.9 20.6 16.6 17.3 6.7-3.2 13-9.8 19-19.7 5.9-9.9 12.5-16.8 19.7-20.7 7.1-3.9 11.1-7.7 11.8-11.5.8-3.7-3.3-7.2-12.3-10.4-8.9-3.1-19.2-2.6-30.6 1.5z" transform="translate(-101.1 -231.5)" class="stroke-none fill--pig"/><path id="pg30" d="M167.0 47.3c11.4-4.1 21.7-4.6 30.6-1.5 9 3.2 13.1 6.7 12.3 10.4-.7 3.8-4.7 7.6-11.8 11.5-7.2 3.9-13.8 10.8-19.7 20.7-6 9.9-12.3 16.5-19 19.7-6.7 3.3-12.2-2.5-16.6-17.3-4.4-14.9-4.4-24.8.2-29.8 4.5-5 12.5-9.6 24-13.7" class="n1"/><g id="pg31"><path id="pg32" d="M240.3 323.3c4.5 15.6 11.4 20.4 20.6 14.4l-14-45.2c-8.8 4.9-11.1 15.1-6.6 30.8z" transform="translate(-101.1 -231.5)" class="stroke-none fill--pig"/></g></g></g><g id="pg33"><g id="pg34"><path id="pg35" d="M205.1 369.9c6.8-8.2 10.4-14.3 10.8-18.5.4-4.3-3.4-8.2-11.3-11.8-8-3.7-18.2-6.9-30.5-9.6-12.4-2.8-21.8-2.9-28.3-.2-6.5 2.6-9.4 8.6-8.5 18.1.9 9.5 5.4 17.7 13.5 24.7 8 6.9 17.4 10.3 28 9.9 10.6-.4 19.4-4.6 26.3-12.6z" transform="translate(-101.1 -231.5)" fill="#655D5C" class="stroke-none"/></g><g id="pg36"><path id="pg37" d="M215.9 351.4v-.9c-38.6.9-59 9.2-61.2 25.1 7.1 4.8 15.1 7.1 24.1 6.9 10.6-.4 19.4-4.6 26.3-12.6 6.8-8.2 10.4-14.3 10.8-18.5z" transform="translate(-101.1 -231.5)" fill="#E07450" class="stroke-none"/></g><g id="pg38"><path id="pg39" d="M114.7 119.8c.4-4.3-3.4-8.2-11.3-11.8-8-3.7-18.2-6.9-30.5-9.6-12.4-2.8-21.8-2.9-28.3-.2-6.5 2.6-9.4 8.6-8.5 18.1.9 9.5 5.4 17.7 13.5 24.7 8 6.9 17.4 10.3 28 9.9 10.6-.4 19.4-4.6 26.3-12.6 6.8-8.2 10.4-14.3 10.8-18.5" class="n1"/></g></g><g id="pg40" class="stroke-none"><path id="pg41" d="M210.4 347.4c-.1-3.3.5-6.7 1.9-10.3-1.4 1-2.5 3.3-3.4 6.7-1 3.4-.9 6.8.2 10.3 1 3.5 2.7 6.5 5 8.9 2.3 2.4 4.8 3.2 7.7 2.1-3.5-.8-6.2-3.2-8.2-7-2.1-4-3.2-7.5-3.2-10.7z" transform="translate(-101.1 -231.5)" fill="#9E7F72"/><path id="pg42" d="M212.3 337.1c-1.4 3.6-2 7-1.9 10.3 0 3.2 1.1 6.7 3.2 10.7 2 3.8 4.7 6.2 8.2 7 16.8-16 13.6-25.4-9.5-28z" transform="translate(-101.1 -231.5)" fill="#F69D81"/></g><g id="pg43" class="stroke-none"><path id="pg44" d="M226.9 324.7c-2.9 2.5-4.7 5.6-5.5 9.4-.7 3.7.3 7 3.2 9.8 2.8 2.8 6.2 4.3 10.3 4.3 4 0 7.4-1.5 10.3-4.3 2.9-2.8 4.3-6.3 4.3-10.3 0-4-1.2-7.3-3.6-9.8-2.5-2.6-5.5-3.7-9.1-3.4-3.6.3-6.9 1.7-9.9 4.3zm1.8 7.4c-.4-1.4.3-3.2 2.1-5.2 1.6-2 4-2.9 6.9-2.7 2.9.2 4.9 1.2 6 3 1.1 1.9 1.6 3.5 1.3 4.9-.2 1.5-1.3 1.7-3.2.6-1.8-1-3.7-1.3-5.6-.8-2 .3-3.6.8-5 1.5s-2.1.2-2.5-1.3z" transform="translate(-101.1 -231.5)" fill="#454351"/><path id="pg45" d="M230.8 326.9c-1.8 2-2.5 3.8-2.1 5.2.4 1.5 1.1 2 2.5 1.3s3-1.2 5-1.5c1.9-.5 3.8-.2 5.6.8 1.9 1.1 3 .9 3.2-.6.3-1.4-.2-3-1.3-4.9-1.1-1.8-3.1-2.8-6-3-2.9-.2-5.3.7-6.9 2.7z" transform="translate(-101.1 -231.5)" fill="#FFF"/></g><g id="pg46" class="stroke-none"><path id="pg47" d="M141.5 332.1c1.4-2.9 1.8-5.9 1.3-9.2-.5-3.3-1.9-6-4.4-8.3-2.3-2.2-5.2-2.9-8.6-2.1-3.3.8-6 2.7-7.8 5.6-1.8 3-2.3 6.2-1.5 9.5.8 3.5 2.7 6 5.6 7.9 3 1.8 5.9 2.4 8.8 1.7 3-.6 5.2-2.3 6.6-5.1zm-6.7-15.4c1.8 1.2 2.6 2.8 2.6 4.9 0 2-1.1 2.8-3.3 2.4-2.3-.4-3.8-.3-4.7.4-.8.7-1.6 1.1-2.4 1.3-.8.2-1.5-.5-2.1-2.1-.6-1.5-.4-3.3.6-5.2.9-1.8 2.2-2.8 3.9-3.1 1.8-.2 3.5.2 5.4 1.4z" transform="translate(-101.1 -231.5)" fill="#454351"/><path id="pg48" d="M137.4 321.6c0-2.1-.8-3.7-2.6-4.9-1.9-1.2-3.6-1.6-5.4-1.4-1.7.3-3 1.3-3.9 3.1-1 1.9-1.2 3.7-.6 5.2.6 1.6 1.3 2.3 2.1 2.1.8-.2 1.6-.6 2.4-1.3.9-.7 2.4-.8 4.7-.4 2.2.4 3.3-.4 3.3-2.4z" transform="translate(-101.1 -231.5)" fill="#FFF"/></g><g id="pg49"><path id="pg50" d="M90.6 83.8c-4.6-4.2-10.3-6.2-16.9-6.2-6.6 0-12.2 2-17 6.2-4.6 4.1-7 9-7 14.8 0 5.9 2.4 10.8 7 14.9 4.8 4.1 10.4 6.2 17 6.2s12.3-2.1 16.9-6.2c4.7-4.1 7-9 7-14.9 0-5.8-2.3-10.7-7-14.8" class="n1"/><g id="pg51"><path id="pg52" d="M200.7 328.6c0-5.7-2.4-10.5-7.1-14.3-4.8-3.8-10.4-5.6-17.1-5.3-6.7.2-12.3 2.5-17.1 6.7-4.7 4.2-7.1 9.2-7.1 14.9 0 5.6 2.4 10.3 7.1 14.1 4.8 3.9 10.4 5.7 17.1 5.4 6.7-.2 12.3-2.5 17.1-6.7 4.7-4.3 7.1-9.2 7.1-14.8z" transform="translate(-101.1 -231.5)" class="stroke-none fill--pig"/></g><g id="pg53"><path id="pg54" d="M58.0 93.6c-1 1-1.6 2.2-1.6 3.5 0 1.4.6 2.6 1.7 3.5 1.1 1 2.5 1.5 4 1.5 1.6 0 3-.5 4-1.5 1.2-.9 1.8-2.1 1.8-3.5 0-1.3-.7-2.5-1.8-3.5-1.1-.9-2.5-1.4-4-1.4-1.6 0-3 .5-4.1 1.4" class="n1"/><g id="pg55"><path id="pg56" d="M165.2 324.1c-1.8 0-3.3.6-4.6 1.8-1.2 1-1.8 2.4-1.8 3.9 0 1.6.6 2.9 1.9 4 1.2 1.1 2.8 1.8 4.6 1.8 1.8 0 3.3-.7 4.5-1.8 1.2-1.1 1.9-2.4 1.9-4 0-1.5-.8-2.9-2-3.9-1.3-1.2-2.8-1.8-4.5-1.8z" transform="translate(-101.1 -231.5)" class="stroke-none fill--pig"/></g></g><g id="pg57"><path id="pg58" d="M74.1 101.6c1.2 1 2.6 1.5 4.1 1.5 1.7 0 3-.5 4-1.5 1.2-.9 1.8-2.1 1.8-3.5 0-1.3-.6-2.5-1.8-3.5-1.1-.9-2.5-1.4-4.1-1.4-1.5 0-2.9.5-4 1.4-1 1-1.6 2.2-1.6 3.5 0 1.4.6 2.6 1.6 3.5" class="n1"/><g id="pg59"><path id="pg60" d="M181.3 325.1c-1.8 0-3.3.6-4.6 1.8-1.2 1.2-1.8 2.5-1.8 4.2 0 1.6.6 3 1.9 4.2 1.3 1.2 2.8 1.8 4.5 1.8 1.9 0 3.4-.6 4.5-1.8 1.3-1.2 2-2.6 2-4.2 0-1.7-.7-3-2-4.2-1.2-1.2-2.7-1.8-4.5-1.8z" transform="translate(-101.1 -231.5)" class="stroke-none fill--pig"/></g></g></g></g></g><g id="pg61"><path id="pg62" d="M210.1 441.4c5.1-.2 10.2-.3 15.3-.2 5.2 0 8.8-1 11-3.2 2.2-2.1 1.4-5.6-2.6-10.4-3.9-4.7-10.5-7-19.6-6.5-9.3.5-15.2 1.6-17.9 3.5-2.7 2-4.1 4.6-4.1 7.8s1.7 5.5 5.1 7c3.5 1.5 7.7 2.2 12.8 2z" transform="translate(-101.1 -231.5)" class="stroke-none fill--pig"/><path id="pg63" d="M124.2 209.6c5.2 0 8.8-1 11-3.2 2.2-2.1 1.4-5.6-2.6-10.4-3.9-4.7-10.5-7-19.6-6.5-9.3.5-15.2 1.6-17.9 3.5-2.7 2-4.1 4.6-4.1 7.8s1.7 5.5 5.1 7c3.5 1.5 7.7 2.2 12.8 2 5.1-.2 10.2-.3 15.3-.2" class="n1"/><g id="pg64"><path id="pg65" d="M217.1 420.3c-9-1.4-15.2-1.4-18.5.1-3.4 1.5-5.9 4.1-7.6 7.7-1.7 3.7-1.5 6.3.7 8 2.1 1.7 5.7 2.5 10.8 2.3 5.1-.2 10.2-.3 15.3-.2 5.1 0 9.5-.5 13-1.7 3.5-1.1 4.3-3.8 2.5-7.9-1.9-4.2-7.3-6.9-16.2-8.3z" transform="translate(-101.1 -231.5)" class="stroke-none fill--pig"/></g></g></g></svg>
