<?xml version="1.0" encoding="utf-8"?>
<!-- Generator: Adobe Illustrator 14.0.0, SVG Export Plug-In  -->
<!DOCTYPE svg PUBLIC "-//W3C//DTD SVG 1.1//EN" "http://www.w3.org/Graphics/SVG/1.1/DTD/svg11.dtd" [
	<!ENTITY ns_flows "http://ns.adobe.com/Flows/1.0/">
]>
<svg version="1.1"
	 xmlns="http://www.w3.org/2000/svg" xmlns:xlink="http://www.w3.org/1999/xlink" xmlns:a="http://ns.adobe.com/AdobeSVGViewerExtensions/3.0/"
	 x="0px" y="0px" width="16px" height="16px" viewBox="-2.534 -1 16 16" enable-background="new -2.534 -1 16 16"
	 xml:space="preserve">
<defs>
</defs>
<path d="M3.216,2c-0.966,0-1.75,0.783-1.75,1.75S2.25,5.5,3.216,5.5s1.75-0.783,1.75-1.75S4.183,2,3.216,2z M3.216,4.5
	c-0.414,0-0.75-0.336-0.75-0.75S2.802,3,3.216,3s0.75,0.336,0.75,0.75S3.63,4.5,3.216,4.5z"/>
<path d="M5.466,6c-1.104,0-2,0.896-2,2s0.896,2,2,2s2-0.896,2-2S6.571,6,5.466,6z M5.466,9c-0.552,0-1-0.447-1-1s0.448-1,1-1
	s1,0.447,1,1S6.019,9,5.466,9z"/>
<path d="M7.716,0c-0.966,0-1.75,0.783-1.75,1.75S6.75,3.5,7.716,3.5s1.75-0.783,1.75-1.75S8.683,0,7.716,0z M7.716,2.5
	c-0.414,0-0.75-0.336-0.75-0.75S7.302,1,7.716,1s0.75,0.336,0.75,0.75S8.13,2.5,7.716,2.5z"/>
<polygon points="7.02,8.393 6.572,9.288 9.908,10.738 7.779,12.786 2.026,9.93 4.192,8.542 3.906,7.539 0,10.039 7.966,13.995 
	11.681,10.418 "/>
</svg>
