<?xml version="1.0" encoding="utf-8"?>
<!-- Generator: Adobe Illustrator 14.0.0, SVG Export Plug-In  -->
<!DOCTYPE svg PUBLIC "-//W3C//DTD SVG 1.1//EN" "http://www.w3.org/Graphics/SVG/1.1/DTD/svg11.dtd" [
	<!ENTITY ns_flows "http://ns.adobe.com/Flows/1.0/">
]>
<svg version="1.1"
	 xmlns="http://www.w3.org/2000/svg" xmlns:xlink="http://www.w3.org/1999/xlink" xmlns:a="http://ns.adobe.com/AdobeSVGViewerExtensions/3.0/"
	 x="0px" y="0px" width="16px" height="16px" viewBox="-1 -2.975 16 16" enable-background="new -1 -2.975 16 16"
	 xml:space="preserve">
<defs>
</defs>
<path d="M4.477,0L0,1.679v4.707l9.565,3.188L14,6.803V2.646L4.477,0z M3.953,3.104l3.129-1.342l2.177,0.604l-2.869,1.44L3.953,3.104
	z M6.266,4.119L6.25,7.415l-2.5-0.833v-3.4L6.266,4.119z M6.75,4.372l2.711,0.644L9.25,8.415l-2.5-0.833V4.372z M9.497,4.945
	L7.151,3.979l2.827-1.412l2.496,0.692L9.497,4.945z M4.523,1.051l1.79,0.497l-2.824,1.21L1.626,2.137L4.523,1.051z M1,2.456
	l2.25,0.75v3.209L1,5.665V2.456z M9.75,8.279L9.539,5.012L13,3.555v2.693L9.75,8.279z"/>
</svg>
